<svg xmlns="http://www.w3.org/2000/svg" viewBox="0 0 100 94">
  <rect width="100" height="94" rx="22" fill="#2f4cff"/>
  <g fill="#ffffff">
    <path d="M27 14 L45 14 C47 14 48 16 47 18 L38 41 C37 43 34 43 33 41 L24 19 C23 16 24 14 27 14 Z"/>
    <path d="M58 14 L84 14 C86 14 87 16 87 18 L87 34 C87 37 84 38 82 36 L74 30 L34 78 C33 79 31 80 29 80 L18 80 C15 80 14 77 16 75 L58 14 Z"/>
    <path d="M73 78 L55 78 C53 78 52 76 53 74 L62 51 C63 49 66 49 67 51 L76 73 C77 76 76 78 73 78 Z"/>
  </g>
</svg>
